<?xml version="1.0" standalone="no"?>
<!DOCTYPE svg PUBLIC "-//W3C//DTD SVG 20010904//EN"
 "http://www.w3.org/TR/2001/REC-SVG-20010904/DTD/svg10.dtd">
<svg version="1.0" xmlns="http://www.w3.org/2000/svg"
 width="24.000000pt" height="24.000000pt" viewBox="0 0 24.000000 24.000000"
 preserveAspectRatio="xMidYMid meet">

<g transform="translate(0.000000,24.000000) scale(0.100000,-0.100000)"
fill="#000000" stroke="none">
<path d="M12 228 c-16 -16 -16 -200 0 -216 16 -16 200 -16 216 0 16 16 16 200
0 216 -16 16 -200 16 -216 0z m172 -44 c28 -29 36 -84 14 -101 -37 -28 -128
-3 -128 35 0 21 29 52 48 52 22 0 52 -30 52 -52 0 -10 5 -18 10 -18 19 0 10
41 -15 65 -31 32 -59 32 -90 0 -32 -31 -32 -59 1 -91 21 -22 31 -25 61 -19 27
5 34 3 31 -7 -3 -7 -22 -14 -44 -16 -33 -2 -45 2 -67 24 -58 58 -18 154 63
154 27 0 45 -7 64 -26z"/>
<path d="M100 120 c0 -13 7 -20 20 -20 13 0 20 7 20 20 0 13 -7 20 -20 20 -13
0 -20 -7 -20 -20z"/>
</g>
</svg>
